<mxfile host="app.diagrams.net" modified="2023-08-18T04:54:57.519Z" agent="Mozilla/5.0 (Windows NT 10.0; Win64; x64) AppleWebKit/537.36 (KHTML, like Gecko) Chrome/115.0.0.0 Safari/537.36 Edg/115.0.1901.203" etag="-DfNe34fUS4zbj5ILNOp" version="21.6.6" type="device">
  <diagram id="prtHgNgQTEPvFCAcTncT" name="Page-1">
    <mxGraphModel dx="996" dy="549" grid="1" gridSize="10" guides="1" tooltips="1" connect="1" arrows="1" fold="1" page="1" pageScale="1" pageWidth="827" pageHeight="1169" math="0" shadow="0">
      <root>
        <mxCell id="0" />
        <mxCell id="1" parent="0" />
        <mxCell id="DRkb4xvNVB38JwlxhEwW-12" style="edgeStyle=orthogonalEdgeStyle;rounded=0;orthogonalLoop=1;jettySize=auto;html=1;entryX=0;entryY=0.5;entryDx=0;entryDy=0;" parent="1" source="DRkb4xvNVB38JwlxhEwW-8" target="DRkb4xvNVB38JwlxhEwW-9" edge="1">
          <mxGeometry relative="1" as="geometry" />
        </mxCell>
        <mxCell id="DRkb4xvNVB38JwlxhEwW-8" value="Просмотр доступных номеров и их характеристик" style="whiteSpace=wrap;html=1;" parent="1" vertex="1">
          <mxGeometry x="310" y="90" width="120" height="60" as="geometry" />
        </mxCell>
        <mxCell id="DRkb4xvNVB38JwlxhEwW-13" style="edgeStyle=orthogonalEdgeStyle;rounded=0;orthogonalLoop=1;jettySize=auto;html=1;exitX=1;exitY=0.5;exitDx=0;exitDy=0;entryX=0;entryY=0.5;entryDx=0;entryDy=0;" parent="1" source="DRkb4xvNVB38JwlxhEwW-9" target="DRkb4xvNVB38JwlxhEwW-10" edge="1">
          <mxGeometry relative="1" as="geometry" />
        </mxCell>
        <mxCell id="DRkb4xvNVB38JwlxhEwW-9" value="Выбор типа номера или конкретного номера" style="whiteSpace=wrap;html=1;" parent="1" vertex="1">
          <mxGeometry x="460" y="90" width="120" height="60" as="geometry" />
        </mxCell>
        <mxCell id="DRkb4xvNVB38JwlxhEwW-16" value="" style="edgeStyle=orthogonalEdgeStyle;rounded=0;orthogonalLoop=1;jettySize=auto;html=1;" parent="1" source="DRkb4xvNVB38JwlxhEwW-10" target="DRkb4xvNVB38JwlxhEwW-11" edge="1">
          <mxGeometry relative="1" as="geometry" />
        </mxCell>
        <mxCell id="DRkb4xvNVB38JwlxhEwW-10" value="Оформление бронирования" style="whiteSpace=wrap;html=1;" parent="1" vertex="1">
          <mxGeometry x="610" y="90" width="120" height="60" as="geometry" />
        </mxCell>
        <mxCell id="DRkb4xvNVB38JwlxhEwW-11" value="Оплата бронирования" style="whiteSpace=wrap;html=1;" parent="1" vertex="1">
          <mxGeometry x="760" y="90" width="120" height="60" as="geometry" />
        </mxCell>
        <mxCell id="viFNbDLytNFpetLnt_BZ-14" value="Вариант 2. Функциональная декомпозиция по контексту клиента" style="text;html=1;align=center;verticalAlign=middle;resizable=0;points=[];autosize=1;strokeColor=none;fillColor=none;fontSize=16;" parent="1" vertex="1">
          <mxGeometry x="50" y="10" width="500" height="30" as="geometry" />
        </mxCell>
        <mxCell id="r8Md3Bdfmw1FdYdHBDNH-5" style="edgeStyle=orthogonalEdgeStyle;rounded=0;orthogonalLoop=1;jettySize=auto;html=1;exitX=1;exitY=0.5;exitDx=0;exitDy=0;entryX=0;entryY=0.5;entryDx=0;entryDy=0;" edge="1" parent="1" source="r8Md3Bdfmw1FdYdHBDNH-1" target="r8Md3Bdfmw1FdYdHBDNH-3">
          <mxGeometry relative="1" as="geometry" />
        </mxCell>
        <mxCell id="r8Md3Bdfmw1FdYdHBDNH-1" value="Регистрация в системе" style="rounded=0;whiteSpace=wrap;html=1;" vertex="1" parent="1">
          <mxGeometry x="20" y="90" width="120" height="60" as="geometry" />
        </mxCell>
        <mxCell id="r8Md3Bdfmw1FdYdHBDNH-6" style="edgeStyle=orthogonalEdgeStyle;rounded=0;orthogonalLoop=1;jettySize=auto;html=1;exitX=1;exitY=0.5;exitDx=0;exitDy=0;entryX=0;entryY=0.5;entryDx=0;entryDy=0;" edge="1" parent="1" source="r8Md3Bdfmw1FdYdHBDNH-3" target="DRkb4xvNVB38JwlxhEwW-8">
          <mxGeometry relative="1" as="geometry" />
        </mxCell>
        <mxCell id="r8Md3Bdfmw1FdYdHBDNH-3" value="Аутентификация и авторизация в системе" style="rounded=0;whiteSpace=wrap;html=1;" vertex="1" parent="1">
          <mxGeometry x="170" y="90" width="120" height="60" as="geometry" />
        </mxCell>
      </root>
    </mxGraphModel>
  </diagram>
</mxfile>
